<?xml version="1.0" encoding="utf-8"?>
<!-- Generator: Adobe Illustrator 19.2.1, SVG Export Plug-In . SVG Version: 6.00 Build 0)  -->
<svg version="1.1" xmlns="http://www.w3.org/2000/svg" xmlns:xlink="http://www.w3.org/1999/xlink" x="0px" y="0px"
	 viewBox="0 0 768.7 768.7" style="enable-background:new 0 0 768.7 768.7;" xml:space="preserve">
<style type="text/css">
	.st0{fill:#DC1D26;}
</style>
<g id="M">
</g>
<g id="y_sotto">
</g>
<g id="y">
</g>
<g id="cerchio">
	<g>
		<path class="st0" d="M216.1,147.9c-22.4,8.6-40.4,24.1-51.8,44.8c-12,21.8-13.8,43.1-13.8,53.9v310.5c0,6.3,5.1,11.3,11.3,11.3
			s11.3-5.1,11.3-11.3V246.7c0-9.7,2.5-59,51-77.5c5.9-2.2,8.8-8.8,6.5-14.6C228.5,148.6,222,145.7,216.1,147.9z"/>
		<path class="st0" d="M394.2,589.2v-75c0-6.3-5.1-11.3-11.3-11.3s-11.3,5.1-11.3,11.3v75c0,6.3,5.1,11.3,11.3,11.3
			S394.2,595.4,394.2,589.2z"/>
		<path class="st0" d="M583.2,169.1c-21.9-21-52.2-30.8-90.1-29.2c-42.2,0-74.5,11.9-96,35.2c-5.6,6.1-10.1,12.5-13.5,18.9
			c-12.1-22.4-34.1-41.7-69.6-49.9c-6.1-1.4-12.2,2.4-13.6,8.5c-1.4,6.1,2.4,12.2,8.5,13.6c48.1,11.1,60.3,44.8,63.3,65
			c-0.5,4.4-0.6,8.3-0.6,11.5v177.5c0,6.3,5.1,11.3,11.3,11.3s11.3-5.1,11.3-11.3V248.3c0.9-1.7,1.5-3.6,1.5-5.6
			c0-3.9-0.2-7.8-0.7-11.7c1.7-11.8,6.4-27.2,18.7-40.5c17.1-18.5,43.8-27.9,79.6-27.9l0.5,0c31.7-1.3,56.5,6.4,73.7,22.9
			c23.2,22.2,25,52.5,25,61.2v310.5c0,6.3,5.1,11.3,11.3,11.3s11.3-5.1,11.3-11.3V246.7C615.2,217.2,603.2,188.2,583.2,169.1z"/>
		<path class="st0" d="M493.8,137.5c6.3,0,11.3-5.1,11.3-11.3v-26c0-6.3-5.1-11.3-11.3-11.3s-11.3,5.1-11.3,11.3v26
			C482.5,132.4,487.6,137.5,493.8,137.5z"/>
		<path class="st0" d="M505.2,539.6V197.2c0-6.3-5.1-11.3-11.3-11.3s-11.3,5.1-11.3,11.3v301.7c-5.6-4.7-12-8.6-19.2-11.3
			l-132.6-52.4l-0.5-0.2c-57.9-19.8-54.3-61.8-54.1-63.5l0.1-0.6V100.2c0-6.3-5.1-11.3-11.3-11.3s-11.3,5.1-11.3,11.3v269.4
			c-0.3,3.7-0.9,17.6,6.3,34.1c13,30.1,41.3,45.2,62.8,52.7L455,508.6l0.1,0c14.4,5.5,24.5,18,27.4,32.9v34.9
			c0,11.6-2.5,33.9-19.4,52.3c-17,18.5-43.7,27.9-79.4,27.9l-0.5,0c-31.6,1.3-56.3-6.3-73.4-22.8c-23.1-22.2-24.9-52.6-24.9-61.4
			c0-6.3-5.1-11.3-11.3-11.3s-11.3,5.1-11.3,11.3c0,29.5,11.9,58.6,31.9,77.8c20.3,19.4,47.9,29.2,82.2,29.2c2.5,0,5.1-0.1,7.7-0.2
			c42.2,0,74.5-11.9,95.9-35.2c22.1-24.1,25.4-52.7,25.4-67.6v-22.1c0.5-1.3,0.8-2.7,0.8-4.2C506,546.6,505.7,543.1,505.2,539.6z"/>
		<path class="st0" d="M738.5,234.7c-19.4-45.8-47.1-86.9-82.4-122.2c-35.3-35.3-76.4-63-122.2-82.4C486.6,10.2,436.2,0,384.3,0
			c-51.9,0-102.2,10.2-149.6,30.2c-45.8,19.4-86.9,47.1-122.2,82.4c-35.3,35.3-63,76.4-82.4,122.2C10.2,282.1,0,332.5,0,384.3
			c0,51.9,10.2,102.2,30.2,149.6c19.4,45.8,47.1,86.9,82.4,122.2c35.3,35.3,76.4,63,122.2,82.4c47.4,20,97.7,30.2,149.6,30.2
			c51.9,0,102.2-10.2,149.6-30.2c45.8-19.4,86.9-47.1,122.2-82.4c35.3-35.3,63-76.4,82.4-122.2c20-47.4,30.2-97.7,30.2-149.6
			C768.7,332.5,758.5,282.1,738.5,234.7z M640.1,640.1C571.8,708.4,480.9,746,384.3,746s-187.4-37.6-255.7-105.9
			C60.3,571.8,22.7,480.9,22.7,384.3s37.6-187.4,105.9-255.7C196.9,60.3,287.7,22.7,384.3,22.7s187.4,37.6,255.7,105.9
			C708.4,196.9,746,287.7,746,384.3S708.4,571.8,640.1,640.1z"/>
	</g>
</g>
</svg>
