<?xml version="1.0" encoding="utf-8"?>
<!-- Generator: Adobe Illustrator 19.2.1, SVG Export Plug-In . SVG Version: 6.00 Build 0)  -->
<svg version="1.1" id="Layer_1" xmlns="http://www.w3.org/2000/svg" xmlns:xlink="http://www.w3.org/1999/xlink" x="0px" y="0px"
	 viewBox="0 0 228 342" style="enable-background:new 0 0 228 342;" xml:space="preserve">
<style type="text/css">
	.st0{fill:#DC1D26;}
</style>
<g id="cerchio">
	<g>
		<path class="st0" d="M77.1,119.2c-4.9,1.9-8.9,5.3-11.4,9.8c-2.6,4.8-3,9.5-3,11.8v68.1c0,1.4,1.1,2.5,2.5,2.5
			c1.4,0,2.5-1.1,2.5-2.5v-68.1c0-2.1,0.5-12.9,11.2-17c1.3-0.5,1.9-1.9,1.4-3.2C79.8,119.3,78.4,118.7,77.1,119.2z"/>
		<path class="st0" d="M116.1,215.9v-16.4c0-1.4-1.1-2.5-2.5-2.5c-1.4,0-2.5,1.1-2.5,2.5v16.4c0,1.4,1.1,2.5,2.5,2.5
			C115,218.4,116.1,217.3,116.1,215.9z"/>
		<path class="st0" d="M157.6,123.8c-4.8-4.6-11.4-6.8-19.8-6.4c-9.3,0-16.3,2.6-21.1,7.7c-1.2,1.3-2.2,2.7-3,4.1
			c-2.7-4.9-7.5-9.1-15.3-10.9c-1.3-0.3-2.7,0.5-3,1.9c-0.3,1.3,0.5,2.7,1.9,3c10.5,2.4,13.2,9.8,13.9,14.3c-0.1,1-0.1,1.8-0.1,2.5
			v38.9c0,1.4,1.1,2.5,2.5,2.5c1.4,0,2.5-1.1,2.5-2.5v-37.7c0.2-0.4,0.3-0.8,0.3-1.2c0-0.9,0-1.7-0.2-2.6c0.4-2.6,1.4-6,4.1-8.9
			c3.7-4.1,9.6-6.1,17.5-6.1h0.1c7-0.3,12.4,1.4,16.2,5c5.1,4.9,5.5,11.5,5.5,13.4v68.1c0,1.4,1.1,2.5,2.5,2.5s2.5-1.1,2.5-2.5
			v-68.1C164.6,134.3,162,128,157.6,123.8z"/>
		<path class="st0" d="M138,116.9c1.4,0,2.5-1.1,2.5-2.5v-5.7c0-1.4-1.1-2.5-2.5-2.5s-2.5,1.1-2.5,2.5v5.7
			C135.5,115.8,136.6,116.9,138,116.9z"/>
		<path class="st0" d="M140.5,205V130c0-1.4-1.1-2.5-2.5-2.5c-1.4,0-2.5,1.1-2.5,2.5v66.2c-1.2-1-2.6-1.9-4.2-2.5l-29.1-11.5l-0.1,0
			c-12.7-4.3-11.9-13.6-11.9-13.9l0-0.1v-59.4c0-1.4-1.1-2.5-2.5-2.5s-2.5,1.1-2.5,2.5v59.1c-0.1,0.8-0.2,3.9,1.4,7.5
			c2.9,6.6,9.1,9.9,13.8,11.6l29,11.4h0c3.2,1.2,5.4,3.9,6,7.2v7.7c0,2.5-0.5,7.4-4.3,11.5c-3.7,4.1-9.6,6.1-17.4,6.1h-0.1
			c-6.9,0.3-12.3-1.4-16.1-5c-5.1-4.9-5.5-11.5-5.5-13.5c0-1.4-1.1-2.5-2.5-2.5c-1.4,0-2.5,1.1-2.5,2.5c0,6.5,2.6,12.8,7,17.1
			c4.5,4.3,10.5,6.4,18,6.4c0.5,0,1.1,0,1.7,0c9.3,0,16.3-2.6,21-7.7c4.8-5.3,5.6-11.6,5.6-14.8v-4.8c0.1-0.3,0.2-0.6,0.2-0.9
			C140.7,206.6,140.6,205.8,140.5,205z"/>
		<path class="st0" d="M191.6,138.2c-4.3-10-10.3-19.1-18.1-26.8s-16.8-13.8-26.8-18.1c-10.4-4.4-21.4-6.6-32.8-6.6
			S91.6,89,81.2,93.3c-10,4.3-19.1,10.3-26.8,18.1s-13.8,16.8-18.1,26.8c-4.4,10.4-6.6,21.4-6.6,32.8c0,11.4,2.2,22.4,6.6,32.8
			c4.3,10,10.3,19.1,18.1,26.8c7.7,7.7,16.8,13.8,26.8,18.1c10.4,4.4,21.4,6.6,32.8,6.6s22.4-2.2,32.8-6.6
			c10-4.3,19.1-10.3,26.8-18.1c7.7-7.7,13.8-16.8,18.1-26.8c4.4-10.4,6.6-21.4,6.6-32.8C198.3,159.6,196,148.6,191.6,138.2z
			 M170.1,227.1c-15,15-34.9,23.2-56.1,23.2s-41.1-8.2-56.1-23.2c-15-15-23.2-34.9-23.2-56.1s8.2-41.1,23.2-56.1
			c15-15,34.9-23.2,56.1-23.2s41.1,8.2,56.1,23.2c15,15,23.2,34.9,23.2,56.1S185,212.1,170.1,227.1z"/>
	</g>
</g>
</svg>
